<svg xmlns="http://www.w3.org/2000/svg" viewBox="0 0 32 32">
	<polygon style="fill:#A236D8;" points="4,6 0,10 0,22 4,26 8,22 8,10 "/>
	<polygon style="fill:#36A2D8;" points="28,6 24,10 24,22 28,26 32,22 32,10 "/>
	<polygon style="fill:#36A2D8;" points="26,4 22,0 10,0 6,4 10,8 22,8 "/>
	<polygon style="fill:#A236D8;" points="26,28 22,24 10,24 6,28 10,32 22,32 "/>
	<polygon style="fill:#353559;" points="8,10 4,6 0,10 8,18 "/>
	<polygon style="fill:#353559;" points="14,24 22,32 26,28 22,24 "/>
	<polygon style="fill:#353559;" points="24,22 28,26 32,22 24,14 "/>
	<polygon style="fill:#353559;" points="18,8 10,0 6,4 10,8 "/>
</svg>
